<svg width="1200" height="630" viewBox="0 0 1200 630" xmlns="http://www.w3.org/2000/svg" font-family="ui-sans-serif, system-ui, -apple-system, BlinkMacSystemFont, sans-serif">

  <defs>
    <marker id="arrow" viewBox="0 0 10 10" refX="8" refY="5" markerWidth="5" markerHeight="5" orient="auto">
      <path d="M 0 1 L 9 5 L 0 9 z" fill="#484f58"/>
    </marker>
    <linearGradient id="bgGrad" x1="0" y1="0" x2="0" y2="1">
      <stop offset="0%" stop-color="#0d1117"/>
      <stop offset="100%" stop-color="#010409"/>
    </linearGradient>
    <filter id="glow1"><feGaussianBlur stdDeviation="3" result="blur"/><feMerge><feMergeNode in="blur"/><feMergeNode in="SourceGraphic"/></feMerge></filter>
  </defs>

  <!-- Background -->
  <rect width="1200" height="630" fill="url(#bgGrad)"/>
  <rect x="0.5" y="0.5" width="1199" height="629" fill="none" stroke="#21262d" stroke-width="1"/>

  <!-- Header -->
  <text x="600" y="52" text-anchor="middle" font-size="28" font-weight="700" fill="#ffffff" letter-spacing="-0.3">AI/ML Job Market Intelligence Pipeline</text>
  <text x="600" y="80" text-anchor="middle" font-size="14" fill="#8b949e">Scrape · Store · Cluster · Classify · LLM Insights · Auto-Report</text>
  <line x1="80" y1="100" x2="1120" y2="100" stroke="#21262d" stroke-width="1"/>

  <!-- ── BOX 1: RemoteOK ── x=90 -->
  <rect x="90" y="120" width="155" height="150" rx="8" fill="#161b22" stroke="#30363d" stroke-width="1"/>
  <rect x="90" y="120" width="155" height="5" rx="3" fill="#e8a838"/>
  <text x="167" y="162" text-anchor="middle" font-size="30">🌐</text>
  <text x="167" y="192" text-anchor="middle" font-size="14" font-weight="600" fill="#ffffff">RemoteOK</text>
  <text x="167" y="212" text-anchor="middle" font-size="11" fill="#8b949e">JSON API</text>
  <text x="167" y="234" text-anchor="middle" font-size="12" font-weight="600" fill="#e8a838">97 jobs</text>
  <text x="167" y="254" text-anchor="middle" font-size="10" fill="#6e7681">5 AI/ML tags</text>

  <!-- Arrow 1 -->
  <line x1="246" y1="195" x2="262" y2="195" stroke="#484f58" stroke-width="2" marker-end="url(#arrow)"/>

  <!-- ── BOX 2: Async Scraper ── x=263 -->
  <rect x="263" y="120" width="155" height="150" rx="8" fill="#161b22" stroke="#30363d" stroke-width="1"/>
  <rect x="263" y="120" width="155" height="5" rx="3" fill="#58a6ff"/>
  <text x="340" y="162" text-anchor="middle" font-size="30">⚡</text>
  <text x="340" y="192" text-anchor="middle" font-size="14" font-weight="600" fill="#ffffff">Async Scraper</text>
  <text x="340" y="212" text-anchor="middle" font-size="11" fill="#8b949e">aiohttp · asyncio</text>
  <text x="340" y="234" text-anchor="middle" font-size="12" font-weight="600" fill="#58a6ff">Dedup by URL</text>
  <text x="340" y="254" text-anchor="middle" font-size="10" fill="#6e7681">BeautifulSoup4</text>

  <!-- Arrow 2 -->
  <line x1="419" y1="195" x2="435" y2="195" stroke="#484f58" stroke-width="2" marker-end="url(#arrow)"/>

  <!-- ── BOX 3: PostgreSQL ── x=436 -->
  <rect x="436" y="120" width="155" height="150" rx="8" fill="#161b22" stroke="#30363d" stroke-width="1"/>
  <rect x="436" y="120" width="155" height="5" rx="3" fill="#336791"/>
  <text x="513" y="162" text-anchor="middle" font-size="30">🗄️</text>
  <text x="513" y="192" text-anchor="middle" font-size="14" font-weight="600" fill="#ffffff">PostgreSQL</text>
  <text x="513" y="212" text-anchor="middle" font-size="11" fill="#8b949e">SQLAlchemy · Alembic</text>
  <text x="513" y="234" text-anchor="middle" font-size="12" font-weight="600" fill="#336791">3 ORM Models</text>
  <text x="513" y="254" text-anchor="middle" font-size="10" fill="#6e7681">Jobs · Features · Runs</text>

  <!-- Arrow 3 -->
  <line x1="592" y1="195" x2="608" y2="195" stroke="#484f58" stroke-width="2" marker-end="url(#arrow)"/>

  <!-- ── BOX 4: ML Pipeline ── x=609 -->
  <rect x="609" y="120" width="155" height="150" rx="8" fill="#161b22" stroke="#30363d" stroke-width="1"/>
  <rect x="609" y="120" width="155" height="5" rx="3" fill="#f77f00"/>
  <text x="686" y="162" text-anchor="middle" font-size="30">🤖</text>
  <text x="686" y="192" text-anchor="middle" font-size="14" font-weight="600" fill="#ffffff">ML Pipeline</text>
  <text x="686" y="212" text-anchor="middle" font-size="11" fill="#8b949e">scikit-learn</text>
  <text x="686" y="234" text-anchor="middle" font-size="12" font-weight="600" fill="#f77f00">K-Means · LR · SVC</text>
  <text x="686" y="254" text-anchor="middle" font-size="10" fill="#6e7681">TF-IDF · 8 clusters</text>

  <!-- Arrow 4 -->
  <line x1="765" y1="195" x2="781" y2="195" stroke="#484f58" stroke-width="2" marker-end="url(#arrow)"/>

  <!-- ── BOX 5: Groq LLaMA ── x=782 -->
  <rect x="782" y="120" width="155" height="150" rx="8" fill="#161b22" stroke="#30363d" stroke-width="1"/>
  <rect x="782" y="120" width="155" height="5" rx="3" fill="#9333ea"/>
  <text x="859" y="162" text-anchor="middle" font-size="30">✨</text>
  <text x="859" y="192" text-anchor="middle" font-size="14" font-weight="600" fill="#ffffff">Groq LLaMA</text>
  <text x="859" y="212" text-anchor="middle" font-size="11" fill="#8b949e">LLaMA 3.3 · 70B</text>
  <text x="859" y="234" text-anchor="middle" font-size="12" font-weight="600" fill="#9333ea">Market Insights</text>
  <text x="859" y="254" text-anchor="middle" font-size="10" fill="#6e7681">Free tier · retry</text>

  <!-- Arrow 5 -->
  <line x1="938" y1="195" x2="954" y2="195" stroke="#484f58" stroke-width="2" marker-end="url(#arrow)"/>

  <!-- ── BOX 6: Google Sheets ── x=955 -->
  <rect x="955" y="120" width="155" height="150" rx="8" fill="#161b22" stroke="#30363d" stroke-width="1"/>
  <rect x="955" y="120" width="155" height="5" rx="3" fill="#34a853"/>
  <text x="1032" y="162" text-anchor="middle" font-size="30">📊</text>
  <text x="1032" y="192" text-anchor="middle" font-size="14" font-weight="600" fill="#ffffff">Google Sheets</text>
  <text x="1032" y="212" text-anchor="middle" font-size="11" fill="#8b949e">gspread · Service Acct</text>
  <text x="1032" y="234" text-anchor="middle" font-size="12" font-weight="600" fill="#34a853">Dated tab per run</text>
  <text x="1032" y="254" text-anchor="middle" font-size="10" fill="#6e7681">Skills · Clusters · Report</text>

  <!-- Section divider -->
  <line x1="80" y1="292" x2="1120" y2="292" stroke="#21262d" stroke-width="1"/>

  <!-- FastAPI trigger pill -->
  <rect x="390" y="308" width="420" height="52" rx="26" fill="#161b22" stroke="#21262d" stroke-width="1"/>
  <text x="600" y="328" text-anchor="middle" font-size="11" fill="#6e7681" letter-spacing="1">TRIGGER</text>
  <text x="600" y="350" text-anchor="middle" font-size="17" font-weight="600" fill="#58a6ff" font-family="ui-monospace, 'Cascadia Code', monospace">POST /run-pipeline  (FastAPI)</text>

  <!-- Stats row -->
  <line x1="80" y1="382" x2="1120" y2="382" stroke="#21262d" stroke-width="1"/>

  <!-- Stat 1 -->
  <rect x="90" y="395" width="235" height="70" rx="8" fill="#161b22" stroke="#21262d" stroke-width="1"/>
  <text x="207" y="418" text-anchor="middle" font-size="11" fill="#6e7681" letter-spacing="0.5">JOBS SCRAPED</text>
  <text x="207" y="452" text-anchor="middle" font-size="30" font-weight="700" fill="#e8a838">97</text>

  <!-- Stat 2 -->
  <rect x="345" y="395" width="235" height="70" rx="8" fill="#161b22" stroke="#21262d" stroke-width="1"/>
  <text x="462" y="418" text-anchor="middle" font-size="11" fill="#6e7681" letter-spacing="0.5">CLUSTERS FOUND</text>
  <text x="462" y="452" text-anchor="middle" font-size="30" font-weight="700" fill="#f77f00">8</text>

  <!-- Stat 3 -->
  <rect x="600" y="395" width="235" height="70" rx="8" fill="#161b22" stroke="#21262d" stroke-width="1"/>
  <text x="717" y="418" text-anchor="middle" font-size="11" fill="#6e7681" letter-spacing="0.5">BEST F1 SCORE</text>
  <text x="717" y="452" text-anchor="middle" font-size="30" font-weight="700" fill="#9333ea">0.42</text>

  <!-- Stat 4 -->
  <rect x="855" y="395" width="255" height="70" rx="8" fill="#161b22" stroke="#21262d" stroke-width="1"/>
  <text x="982" y="418" text-anchor="middle" font-size="11" fill="#6e7681" letter-spacing="0.5">TESTS PASSING</text>
  <text x="982" y="452" text-anchor="middle" font-size="30" font-weight="700" fill="#34a853">36 / 36</text>

  <!-- Bottom divider -->
  <line x1="80" y1="484" x2="1120" y2="484" stroke="#21262d" stroke-width="1"/>

  <!-- Tech stack -->
  <text x="600" y="512" text-anchor="middle" font-size="12" fill="#8b949e">Python · FastAPI · PostgreSQL · scikit-learn · Groq API · Google Sheets API · Docker</text>

  <!-- GitHub link -->
  <text x="600" y="540" text-anchor="middle" font-size="13" font-weight="500" fill="#58a6ff">github.com/safdarayubpk/ai-ml-job-market-pipeline</text>

  <!-- Author -->
  <text x="600" y="575" text-anchor="middle" font-size="12" fill="#6e7681">Safdar Ayub  ·  AI Engineer  ·  Open to Remote Roles</text>

  <!-- Decorative dots at corners -->
  <circle cx="25" cy="25" r="3" fill="#21262d"/>
  <circle cx="1175" cy="25" r="3" fill="#21262d"/>
  <circle cx="25" cy="605" r="3" fill="#21262d"/>
  <circle cx="1175" cy="605" r="3" fill="#21262d"/>

</svg>
